<svg width="248" height="48" viewBox="0 0 248 48" fill="none" xmlns="http://www.w3.org/2000/svg">
<path d="M43.5149 25.0051C43.0078 22.0044 39.8664 20.3466 37.4923 21.8926C36.2407 22.8142 35.6602 24.2032 35.3174 26.4301C35.2947 26.6148 35.2332 26.7927 35.137 26.9521C35.0407 27.1115 34.912 27.2487 34.7591 27.3549C34.6061 27.4611 34.4325 27.5338 34.2496 27.5683C34.0666 27.6028 33.8785 27.5983 33.6974 27.5551C30.5187 26.8045 27.2659 26.4121 23.9999 26.3851C20.7339 26.4121 17.4812 26.8045 14.3024 27.5551C14.1213 27.5985 13.9331 27.6031 13.7501 27.5687C13.5671 27.5343 13.3934 27.4616 13.2404 27.3554C13.0875 27.2492 12.9587 27.1119 12.8625 26.9524C12.7664 26.7929 12.705 26.6149 12.6824 26.4301C12.3383 24.202 11.762 22.8162 10.5075 21.8926C8.14004 20.3559 4.9903 22.0033 4.48505 25.0051C3.67492 28.6951 5.45242 34.6801 10.3649 38.5051C11.0506 39.047 11.8985 39.3428 12.7724 39.3451H35.2274C35.633 39.3468 36.036 39.2809 36.4199 39.1501C41.9975 36.3381 44.4544 28.7414 43.5149 25.0051Z" fill="#00676C"/>
<path d="M10.6426 20.25C12.7911 21.3451 13.6385 23.1162 14.1451 26.0549C17.3775 25.306 20.6822 24.9137 24.0001 24.885C27.3199 24.9154 30.6267 25.3052 33.8626 26.0475C34.3771 23.1094 35.1986 21.3519 37.3575 20.25L38.4376 9.16499C38.518 8.3148 38.3133 7.46201 37.8557 6.74098C37.3981 6.01995 36.7136 5.47166 35.9101 5.18249C28.2225 2.33639 19.7701 2.33647 12.0826 5.18273C11.2807 5.47358 10.5982 6.02248 10.1421 6.74324C9.68598 7.46401 9.48214 8.31583 9.56257 9.16499L10.6426 20.25ZM13.8451 8.53499C20.4143 6.21848 27.5783 6.21856 34.1476 8.53523C34.3076 8.58861 34.4446 8.69497 34.5359 8.83675C34.6273 8.97853 34.6676 9.14723 34.6501 9.31499L33.5084 21.065C33.4857 21.2602 33.3873 21.4387 33.2343 21.5621C33.0814 21.6855 32.8861 21.744 32.6905 21.7249C32.4949 21.7058 32.3146 21.6108 32.1884 21.4602C32.0622 21.3096 32.0001 21.1154 32.0155 20.9195L33.1051 9.76499C30.1649 8.7992 27.0945 8.28831 24.0001 8.24999C20.9056 8.28831 17.8352 8.7992 14.8951 9.76499L15.9847 20.9196C16.0008 21.1159 15.9391 21.3107 15.8128 21.4619C15.6866 21.6132 15.5059 21.7087 15.3098 21.7278C15.1138 21.747 14.918 21.6882 14.7649 21.5643C14.6118 21.4404 14.5135 21.2612 14.4914 21.0654L13.3426 9.31499C13.3282 9.1477 13.3698 8.98038 13.4607 8.83923C13.5516 8.69809 13.6868 8.59109 13.8451 8.53499Z" fill="#00676C"/>
<path d="M12.3375 40.8225C11.6849 40.7781 11.0476 40.6048 10.4625 40.3125L10.215 41.145C9.1933 44.9559 14.7525 46.6323 15.9675 42.8474L16.56 40.845C16.3468 40.8326 12.3975 40.8692 12.3375 40.8225Z" fill="#00676C"/>
<path d="M37.5376 40.3199C36.1523 41.1226 32.9862 40.7785 31.4326 40.8449L32.0326 42.8549C32.2643 43.6119 32.7858 44.2466 33.4834 44.6209C34.181 44.9951 34.9982 45.0785 35.757 44.8529C36.5158 44.6274 37.1548 44.1111 37.5346 43.4165C37.9145 42.722 38.0045 41.9055 37.7851 41.1449L37.5376 40.3199Z" fill="#00676C"/>
<path d="M58.04 10.1C58.6267 9.67335 59.32 9.39335 60.12 9.26001C60.2533 9.23335 60.4533 9.22001 60.72 9.22001C61.7867 9.22001 62.72 9.56668 63.52 10.26C64.32 10.9267 64.8933 11.8867 65.24 13.14L68.64 24.78L72.04 12.78C72.3067 11.8467 72.6533 11.1133 73.08 10.58C73.5067 10.0467 73.9867 9.67335 74.52 9.46001C75.08 9.24668 75.64 9.14001 76.2 9.14001C77.1067 9.14001 77.9067 9.46001 78.6 10.1C79.32 10.7133 79.8533 11.6067 80.2 12.78L83.6 24.78L87 13.14C87.3467 11.8867 87.92 10.9267 88.72 10.26C89.5467 9.56668 90.4933 9.22001 91.56 9.22001C91.8 9.22001 92.1333 9.24668 92.56 9.30001C92.9867 9.35335 93.52 9.60668 94.16 10.06C94.8 10.5133 95.3067 11.1 95.68 11.82C96.0533 12.5133 96.24 13.1933 96.24 13.86C96.24 14.1533 96.2 14.42 96.12 14.66L90.92 33.54C89.96 36.9534 87.9333 38.66 84.84 38.66C83.5067 38.66 82.3067 38.26 81.24 37.46C80.2 36.66 79.4667 35.5933 79.04 34.26L76.12 25.1L73.2 34.3C72.7733 35.6333 72.04 36.7 71 37.5C69.96 38.3 68.76 38.7 67.4 38.7C64.3067 38.7 62.28 36.9934 61.32 33.58L56.12 14.66C56.04 14.3667 56 14.0867 56 13.82C56 13.1533 56.1733 12.4867 56.52 11.82C56.8933 11.1267 57.4 10.5533 58.04 10.1Z" fill="#00676C"/>
<path d="M97.4706 14.58C97.4706 13.06 97.884 11.8467 98.7106 10.94C99.564 10.0067 100.684 9.54001 102.071 9.54001H110.671C113.924 9.54001 116.577 10.5267 118.631 12.5C120.684 14.4733 121.711 16.9267 121.711 19.86C121.711 22.58 120.831 24.8467 119.071 26.66C117.337 28.4733 115.004 29.5533 112.071 29.9L110.311 30.02H106.711V33.98C106.711 35.34 106.257 36.46 105.351 37.34C104.444 38.22 103.364 38.66 102.111 38.66C100.831 38.66 99.7373 38.1933 98.8306 37.26C97.924 36.3 97.4706 35.18 97.4706 33.9V14.58ZM111.951 21.38C112.404 20.9267 112.631 20.4067 112.631 19.82C112.631 19.26 112.404 18.7667 111.951 18.34C111.497 17.9133 110.977 17.7 110.391 17.7H106.711V22.02H110.391C111.004 22.02 111.524 21.8067 111.951 21.38Z" fill="#00676C"/>
<path d="M137.658 22.9C138.618 22.9 139.432 23.2467 140.098 23.94C140.765 24.6333 141.098 25.4867 141.098 26.5C141.098 27.4867 140.752 28.3267 140.058 29.02C139.365 29.7133 138.552 30.06 137.618 30.06H126.418C125.432 30.06 124.578 29.7133 123.858 29.02C123.138 28.3267 122.778 27.4867 122.778 26.5C122.778 25.54 123.125 24.6867 123.818 23.94C124.565 23.2467 125.432 22.9 126.418 22.9H137.658Z" fill="#00676C"/>
<path d="M143.253 30.62C143.973 29.5 144.919 28.94 146.093 28.94C146.306 28.94 146.519 28.94 146.733 28.94C146.813 28.94 147.066 28.9933 147.493 29.1L149.253 29.58L150.853 29.98L152.013 30.26L152.453 30.38L153.133 30.5C153.746 30.58 154.226 30.62 154.573 30.62C154.786 30.62 154.999 30.6067 155.213 30.58C155.426 30.5267 155.573 30.4867 155.653 30.46C156.133 30.3 156.466 30.14 156.653 29.98C156.866 29.7933 156.973 29.5667 156.973 29.3C156.973 29.06 156.839 28.8467 156.573 28.66L156.253 28.54L155.493 28.3L154.973 28.14L152.853 27.62L152.453 27.54L149.813 26.78C149.066 26.5667 148.386 26.34 147.773 26.1C147.186 25.86 146.639 25.58 146.133 25.26C145.039 24.5933 144.199 23.7133 143.613 22.62C143.026 21.5 142.733 20.2867 142.733 18.98C142.733 17.9133 142.919 16.8867 143.293 15.9C143.693 14.8867 144.306 13.9267 145.133 13.02C145.959 12.1133 147.053 11.34 148.413 10.7C149.799 10.0333 151.346 9.59335 153.053 9.38001C153.773 9.30001 154.479 9.26001 155.173 9.26001C156.639 9.26001 158.093 9.47335 159.533 9.90001C160.973 10.3267 162.053 10.82 162.773 11.38C163.493 11.9133 163.986 12.6067 164.253 13.46C164.333 13.7 164.386 13.9933 164.413 14.34C164.439 14.66 164.453 14.8333 164.453 14.86C164.453 15.6867 164.239 16.3933 163.813 16.98C163.039 18.1 161.999 18.66 160.693 18.66C159.946 18.66 159.119 18.5267 158.213 18.26L157.893 18.14L156.733 17.78L156.253 17.66L155.133 17.38L154.573 17.26L154.173 17.18L153.653 17.14C152.933 17.14 152.439 17.2467 152.173 17.46C151.906 17.6733 151.773 17.9 151.773 18.14C151.773 18.3 151.853 18.4467 152.013 18.58L152.653 18.86L153.413 19.06L153.693 19.14L154.493 19.34L155.813 19.66L158.453 20.38C159.759 20.7533 160.919 21.1933 161.933 21.7C163.346 22.42 164.439 23.42 165.213 24.7C165.986 25.9533 166.373 27.3133 166.373 28.78C166.373 29.82 166.199 30.82 165.853 31.78C165.506 32.7133 164.933 33.6467 164.133 34.58C162.906 36.02 161.333 37.06 159.413 37.7C157.493 38.3133 155.106 38.62 152.253 38.62C150.653 38.62 149.279 38.4733 148.133 38.18C146.986 37.86 146.013 37.46 145.213 36.98C144.199 36.3933 143.506 35.7933 143.133 35.18C142.759 34.54 142.573 33.7533 142.573 32.82C142.573 32.0467 142.799 31.3133 143.253 30.62Z" fill="#00676C"/>
<path d="M170.259 15.7C171.673 13.6733 173.499 12.0733 175.739 10.9C177.979 9.72668 180.366 9.14001 182.899 9.14001C185.459 9.14001 187.846 9.71335 190.059 10.86C192.273 12.0067 194.099 13.62 195.539 15.7C197.326 18.2333 198.219 20.98 198.219 23.94C198.219 26.9 197.326 29.6467 195.539 32.18C194.126 34.26 192.299 35.8733 190.059 37.02C187.846 38.1667 185.459 38.74 182.899 38.74C180.339 38.74 177.953 38.1667 175.739 37.02C173.526 35.8733 171.699 34.26 170.259 32.18C168.473 29.62 167.579 26.8733 167.579 23.94C167.579 21.0067 168.473 18.26 170.259 15.7ZM188.979 22.7C188.713 21.0467 188.006 19.7133 186.859 18.7C185.739 17.6867 184.419 17.18 182.899 17.18C181.166 17.18 179.699 17.82 178.499 19.1C177.326 20.3533 176.739 21.9667 176.739 23.94C176.739 25.9133 177.326 27.54 178.499 28.82C179.699 30.0733 181.153 30.7 182.859 30.7C183.259 30.7 183.659 30.66 184.059 30.58C185.526 30.2867 186.726 29.54 187.659 28.34C188.619 27.1133 189.099 25.66 189.099 23.98C189.099 23.58 189.059 23.1533 188.979 22.7Z" fill="#00676C"/>
<path d="M200.166 14.22C200.166 12.8867 200.606 11.78 201.486 10.9C202.393 9.99335 203.513 9.54001 204.846 9.54001H215.766C216.886 9.54001 217.846 9.94001 218.646 10.74C219.446 11.54 219.846 12.4867 219.846 13.58C219.846 14.6733 219.433 15.6333 218.606 16.46C217.753 17.2333 216.793 17.62 215.726 17.62H209.446V20.46H214.766C215.859 20.46 216.793 20.86 217.566 21.66C218.339 22.46 218.726 23.4067 218.726 24.5C218.726 25.62 218.339 26.5533 217.566 27.3C216.793 28.0467 215.846 28.42 214.726 28.42H209.446V34.22C209.446 35.5 208.993 36.5933 208.086 37.5C207.179 38.4067 206.086 38.86 204.806 38.86C203.526 38.86 202.433 38.4067 201.526 37.5C200.619 36.5933 200.166 35.5 200.166 34.22V14.22Z" fill="#00676C"/>
<path d="M225.922 14.34C226.562 12.74 227.482 11.5 228.682 10.62C229.909 9.74001 231.309 9.30001 232.882 9.30001C234.456 9.30001 235.842 9.74001 237.042 10.62C238.269 11.4733 239.202 12.7133 239.842 14.34L246.722 31.94C247.069 32.9 247.242 33.7134 247.242 34.38C247.242 35.2867 247.002 36.0867 246.522 36.78C246.042 37.4733 245.349 38.0067 244.442 38.38C243.829 38.6467 243.189 38.78 242.522 38.78C241.562 38.78 240.696 38.5 239.922 37.94C239.149 37.3533 238.576 36.54 238.202 35.5L237.762 34.18H228.042L227.562 35.5C227.189 36.5133 226.602 37.3134 225.802 37.9C225.029 38.4867 224.162 38.78 223.202 38.78C222.562 38.78 221.936 38.6467 221.322 38.38C219.456 37.58 218.522 36.2467 218.522 34.38C218.522 33.7134 218.696 32.9 219.042 31.94L225.922 14.34ZM232.882 18.54L230.722 26.22H235.042L232.882 18.54Z" fill="#00676C"/>
</svg>
